<?xml version="1.0" encoding="iso-8859-1"?>
<!-- Generator: Adobe Illustrator 19.0.0, SVG Export Plug-In . SVG Version: 6.00 Build 0)  -->
<svg version="1.1" id="Capa_1" xmlns="http://www.w3.org/2000/svg" xmlns:xlink="http://www.w3.org/1999/xlink" x="0px" y="0px"
	 viewBox="0 0 512.001 512.001" style="enable-background:new 0 0 512.001 512.001;" xml:space="preserve">
<g>
	<g>
		<path d="M310.063,107.774c-33.617,0-66.902,8.429-96.26,24.377c-3.705,2.012-5.076,6.647-3.065,10.351
			c2.011,3.704,6.645,5.078,10.352,3.064c3.271-1.777,6.597-3.447,9.969-5.021c5.81,3.665,17.681,10.054,33.298,12.715
			c4.29,0.732,9.041,1.203,14.16,1.203c18.452,0,41.675-6.142,65.219-28.373c15.686,2.869,30.691,7.711,44.754,14.249
			c-2.457,1.111-5.018,2.413-7.593,3.937c-17.78,10.525-27.739,26.38-28.802,45.851c-0.23,4.21,2.997,7.809,7.207,8.038
			c0.141,0.008,0.282,0.011,0.422,0.011c4.025,0,7.393-3.15,7.615-7.218c1.611-29.538,30.33-38.719,39.391-40.888
			c35.935,21.841,63.95,55.468,78.639,95.475c-6.006,8.235-19.664,29.578-19.664,53.424c0,24.626,18.462,44.248,26.539,51.658
			c-10.608,47.623-39.562,89.516-81.847,116.522c-3.553,2.269-4.594,6.989-2.325,10.542c1.458,2.28,3.923,3.526,6.441,3.526
			c1.407,0,2.828-0.389,4.102-1.201c58.474-37.345,93.383-101.012,93.383-170.307C512.001,198.363,421.412,107.774,310.063,107.774z
			 M249.534,133.122c19.391-6.625,39.888-10.08,60.529-10.08c4.387,0,8.735,0.164,13.046,0.463
			C292.937,145.774,265.154,139.88,249.534,133.122z M493.008,328.997c-5.49-7.057-12.034-17.995-12.034-30.025
			c0-12.92,5.286-25.39,10.263-34.266c3.584,14.42,5.498,29.493,5.498,45.006c0,7.492-0.459,14.908-1.325,22.227
			C494.618,331.013,493.814,330.033,493.008,328.997z"/>
	</g>
</g>
<g>
	<g>
		<path d="M396.77,483.812c-1.732-3.843-6.253-5.554-10.097-3.823c-24.137,10.877-49.912,16.392-76.611,16.392
			c-17.538,0-34.517-2.436-50.621-6.979c8.661-5.008,14.601-12.447,15.642-20.894c0.584-4.751,0.45-20.761-25.833-27.332
			c-20.488-5.122-23.845-12.604-28.489-22.96c-2.695-6.009-5.751-12.819-12.236-19.305c-16.241-16.242-42.801,1.384-55.493,11.628
			c-1.427-2.216-2.802-4.467-4.137-6.745c11.458-9.824,36.979-33.768,38.087-53.01c0.359-6.22-1.694-11.75-5.936-15.992
			c-3.869-3.869-2.771-7.388,6.53-20.924c8.573-12.476,19.241-28.004,13.663-47.526c-7.74-27.092-38.884-41.311-54.612-46.887
			c2.677-4.835,5.572-9.567,8.693-14.182c2.361-3.492,1.445-8.238-2.048-10.599c-3.49-2.361-8.236-1.445-10.599,2.047
			c-22.6,33.42-34.546,72.491-34.546,112.99c0,111.349,90.589,201.937,201.937,201.937c28.875,0,56.762-5.968,82.883-17.74
			C396.789,492.175,398.502,487.655,396.77,483.812z M123.393,309.711c-0.001-26.63,5.591-52.588,16.332-76.473
			c4.595,1.556,11.331,4.136,18.316,7.858c10.819,5.764,24.549,15.551,28.518,29.439c3.603,12.609-4.109,23.833-11.566,34.687
			c-8.184,11.912-18.37,26.738-4.743,40.365c0.813,0.813,1.626,1.961,1.491,4.315c-0.366,6.404-7.062,16.842-18.368,28.636
			c-4.224,4.406-8.45,8.348-11.849,11.375C129.907,365.602,123.393,338.404,123.393,309.711z M235.214,480.699
			c-29.063-12.771-54.27-32.739-73.358-57.638c11.075-9.005,29.05-20.179,35.873-13.355c4.501,4.5,6.735,9.483,9.101,14.758
			c5.172,11.532,11.036,24.602,38.716,31.522c9.392,2.348,14.904,6.432,14.384,10.655
			C259.231,472.324,249.557,480.144,235.214,480.699z"/>
	</g>
</g>
<g>
	<g>
		<path d="M411.022,262.797c-15.118-10.544-32.252-22.496-40.308-48.52c-1.249-4.027-5.524-6.282-9.55-5.035
			c-4.027,1.247-6.282,5.522-5.035,9.549c9.606,31.033,29.875,45.169,46.159,56.528c19.583,13.659,28.521,19.893,15.372,46.192
			c-23.405,46.812-45.513,91.027,0.321,124.491c1.359,0.991,2.934,1.469,4.496,1.469c2.354,0,4.677-1.086,6.171-3.133
			c2.485-3.405,1.74-8.181-1.664-10.667c-32.059-23.406-23.3-50.07,4.331-105.333C450.365,290.238,430.365,276.288,411.022,262.797z
			"/>
	</g>
</g>
<g>
	<g>
		<path d="M188.225,103.606c0,0,39.615-38.735,39.919-39.04c7.084-7.083,10.992-16.511,11.006-26.547
			c0.013-10.065-3.899-19.528-11.016-26.644c-7.308-7.307-16.978-11.209-27.354-11.015c-10.263,0.204-19.757,4.443-26.755,11.942
			L135.913,51.26L36.327,9.585c-2.859-1.196-6.155-0.546-8.345,1.644L2.236,36.976c-1.567,1.567-2.376,3.739-2.216,5.95
			c0.161,2.212,1.274,4.243,3.051,5.568l79.63,59.351L69.975,121.38l-28.946-4.436c-2.407-0.369-4.837,0.43-6.554,2.148
			l-21.455,21.455c-1.664,1.664-2.467,4.003-2.177,6.339c0.289,2.336,1.641,4.407,3.662,5.613l25.883,15.452
			c0.322,5.38,1.971,10.691,4.927,15.439l-8.097,8.097c-2.981,2.981-2.981,7.814,0,10.795c1.491,1.491,3.444,2.236,5.398,2.236
			c1.953,0,3.907-0.745,5.398-2.236l8.097-8.097c4.676,2.912,9.897,4.55,15.195,4.906l15.125,25.334
			c1.207,2.02,3.277,3.372,5.613,3.662c0.316,0.039,0.629,0.058,0.941,0.058c2.012,0,3.958-0.796,5.398-2.236l21.455-21.455
			c1.716-1.717,2.514-4.151,2.146-6.553l-4.286-27.977l13.952-13.12l59.317,79.582c1.325,1.777,3.358,2.892,5.568,3.051
			c0.185,0.013,0.369,0.02,0.554,0.02c2.015,0,3.96-0.799,5.397-2.236l25.745-25.745c2.189-2.19,2.84-5.487,1.644-8.344
			L188.225,103.606z M201.082,15.624c6.111-0.12,11.911,2.203,16.254,6.546c4.229,4.228,6.553,9.849,6.545,15.829
			c-0.006,4.311-1.236,8.423-3.497,11.966c-1.309-7.648-4.926-14.689-10.542-20.305c-5.618-5.618-12.633-9.237-20.292-10.544
			C192.965,16.936,196.909,15.706,201.082,15.624z M19.275,41.528l15.882-15.882l89.586,37.491L93.229,96.649L19.275,41.528z
			 M43.453,152.002l-12.708-7.588l11.792-11.793l14.743,2.258l-7.898,8.4C46.885,145.933,44.915,148.884,43.453,152.002z
			 M94.514,208.185l-7.195-12.051c3.184-1.471,6.195-3.471,8.902-6.015l7.978-7.501l2.11,13.775L94.514,208.185z M197.932,220.185
			l-55.087-73.907l8.999-8.463c3.072-2.889,3.22-7.719,0.332-10.791c-2.89-3.072-7.721-3.219-10.791-0.332l-13.888,13.059
			c-0.006,0.006-0.012,0.011-0.018,0.017l-23.108,21.729c-0.003,0.003-0.007,0.006-0.01,0.009l-18.599,17.489
			c-2.979,2.801-6.642,4.379-10.396,4.771c-0.28,0.008-0.561,0.029-0.841,0.069c-2.378,0.135-4.768-0.214-7.035-1.033l38.45-38.45
			c2.982-2.98,2.982-7.813,0.001-10.794c-2.981-2.98-7.814-2.981-10.796,0L56.696,172.01c-2.214-6.125-0.973-13.188,3.808-18.272
			L167.154,40.381c4.168-4.126,9.644-6.46,15.542-6.551c6.142-0.109,11.982,2.258,16.349,6.625s6.721,10.174,6.626,16.35
			c-0.091,5.884-2.413,11.349-6.522,15.512l-42.803,40.308c-3.072,2.889-3.22,7.719-0.332,10.791
			c2.888,3.073,7.72,3.219,10.791,0.332l9.542-8.973l37.466,89.528L197.932,220.185z"/>
	</g>
</g>
</svg>
